<svg width="24" height="24" viewBox="0 0 24 24" fill="none" xmlns="http://www.w3.org/2000/svg">
<path d="M14.1999 21.23L20.7099 12.78C21.7677 11.406 22.2366 9.66821 22.0135 7.94861C21.7903 6.22902 20.8934 4.66844 19.5199 3.60999C18.853 3.05397 18.0784 2.64182 17.2446 2.39939C16.4108 2.15697 15.536 2.08951 14.6749 2.20125C13.8138 2.31299 12.9851 2.60152 12.2409 3.04873C11.4966 3.49594 10.8528 4.09217 10.3499 4.79999L2.99992 14.29C1.10992 16.55 2.59992 19.29 4.27992 20.61C5.18005 21.3401 6.33193 21.6856 7.48532 21.5714C8.63872 21.4572 9.70046 20.8925 10.4399 20L17.7499 10.51C17.9748 10.2186 18.1399 9.88568 18.236 9.53036C18.3321 9.17504 18.3571 8.80427 18.3098 8.43925C18.2624 8.07423 18.1435 7.72214 17.9599 7.40311C17.7764 7.08408 17.5317 6.80437 17.2399 6.57999C16.6504 6.12848 15.9061 5.92868 15.1697 6.02424C14.4333 6.1198 13.7647 6.50296 13.3099 7.08999L7.13991 15.09" stroke="#999999" stroke-width="1.5" stroke-miterlimit="10"/>
</svg>
