<svg width="98" height="99" viewBox="0 0 98 99" fill="none" xmlns="http://www.w3.org/2000/svg">
<ellipse cx="49" cy="49.5" rx="49" ry="49.5" fill="#B8B8B8" fill-opacity="0.63"/>
<path d="M38.3334 61H59.6667C61.1395 61 62.3334 59.8061 62.3334 58.3333V44.4667C62.3334 42.9939 61.1395 41.8 59.6667 41.8H55.6667L52.3334 37H45.6667L42.3334 41.8H38.3334C36.8606 41.8 35.6667 42.9939 35.6667 44.4667V58.3333C35.6667 59.8061 36.8606 61 38.3334 61Z" stroke="#666666" stroke-width="1.5" stroke-linecap="round" stroke-linejoin="round"/>
<path d="M49 55.6667C51.9455 55.6667 54.3334 53.2789 54.3334 50.3333C54.3334 47.3878 51.9455 45 49 45C46.0545 45 43.6667 47.3878 43.6667 50.3333C43.6667 53.2789 46.0545 55.6667 49 55.6667Z" stroke="#666666" stroke-width="1.5" stroke-linecap="round" stroke-linejoin="round"/>
</svg>
