<svg width="20" height="20" viewBox="0 0 20 20" fill="none" xmlns="http://www.w3.org/2000/svg">
<path fill-rule="evenodd" clip-rule="evenodd" d="M11.5924 11.4139C10.1605 12.8458 7.83889 12.8458 6.40697 11.4139C4.97505 9.98193 4.97505 7.66033 6.40697 6.2284C7.83889 4.79648 10.1605 4.79648 11.5924 6.2284C13.0243 7.66033 13.0243 9.98193 11.5924 11.4139ZM12.0328 12.7968C10.0726 14.2962 7.25699 14.1495 5.46416 12.3567C3.51154 10.404 3.51154 7.23822 5.46416 5.28559C7.41678 3.33297 10.5826 3.33297 12.5352 5.28559C14.328 7.07834 14.4748 9.89376 12.9756 11.854L16.5423 15.4207L15.5995 16.3635L12.0328 12.7968Z" fill="#999999"/>
</svg>
